<svg width="1481" height="1080" viewBox="0 0 1481 1080" fill="none" xmlns="http://www.w3.org/2000/svg">
<path d="M1419.49 -1180L1431.18 -40.6599L1575.06 -1170.94L1454.4 -37.9463L1728.52 -1143.88L1477.14 -32.5559L1877.8 -1099.19L1499.1 -24.5614L2020.88 -1037.47L1519.99 -14.071L2155.83 -959.554L1539.52 -1.22681L2280.83 -866.5L1557.43 13.7979L2394.17 -759.564L1573.47 30.7997L2494.34 -640.193L1587.42 49.5487L2579.97 -510L1599.11 69.7914L2649.9 -370.747L1608.37 91.2539L2703.2 -224.316L1615.07 113.646L2739.13 -72.6886L1619.13 136.665L2757.22 82.0859L1620.49 160L2757.22 237.914L1619.13 183.335L2739.13 392.689L1615.07 206.354L2703.2 544.316L1608.37 228.746L2649.9 690.747L1599.11 250.209L2579.97 830L1587.42 270.451L2494.34 960.192L1573.47 289.2L2394.17 1079.56L1557.43 306.202L2280.83 1186.5L1539.52 321.227L2155.83 1279.55L1519.99 334.071L2020.88 1357.47L1499.1 344.561L1877.8 1419.19L1477.14 352.556L1728.52 1463.88L1454.4 357.946L1575.06 1490.94L1431.18 360.66L1419.49 1500L1407.8 360.66L1263.93 1490.94L1384.59 357.946L1110.47 1463.88L1361.84 352.556L961.185 1419.19L1339.88 344.561L818.101 1357.47L1318.99 334.071L683.15 1279.55L1299.46 321.227L558.156 1186.5L1281.56 306.202L444.811 1079.56L1265.52 289.2L344.647 960.192L1251.56 270.451L259.018 830L1239.87 250.209L189.082 690.747L1230.61 228.746L135.786 544.316L1223.91 206.354L99.8495 392.689L1219.85 183.335L81.7589 237.914L1218.49 160L81.7589 82.0859L1219.85 136.665L99.8495 -72.6886L1223.91 113.646L135.786 -224.316L1230.61 91.2539L189.082 -370.747L1239.87 69.7914L259.018 -510L1251.56 49.5487L344.647 -640.193L1265.52 30.7997L444.811 -759.564L1281.56 13.7979L558.156 -866.5L1299.46 -1.22681L683.15 -959.554L1318.99 -14.071L818.101 -1037.47L1339.88 -24.5614L961.185 -1099.19L1361.84 -32.5559L1110.47 -1143.88L1384.59 -37.9463L1263.93 -1170.94L1407.8 -40.6599L1419.49 -1180Z" fill="#FFFA76"/>
<path d="M1501.5 -1177.49L1443.44 -39.5686L1656.21 -1158.92L1466.44 -35.4393L1807.73 -1122.53L1488.81 -28.6672L1954 -1068.78L1510.25 -19.3435L2093.04 -998.42L1530.46 -7.59456L2222.97 -912.394L1549.16 6.4207L2342.03 -811.865L1566.11 22.513L2448.62 -698.193L1581.08 40.4646L2541.29 -572.916L1593.87 60.0326L2618.79 -437.727L1604.3 80.9526L2680.08 -294.455L1612.22 102.941L2724.31 -145.038L1617.54 125.702L2750.9 8.50501L1620.19 148.926L2759.49 164.097L1620.12 172.3L2749.95 319.633L1617.33 195.508L2722.42 473.01L1611.87 218.236L2677.27 622.154L1603.81 240.176L2615.12 765.049L1593.25 261.032L2536.79 899.761L1580.35 280.521L2443.35 1024.47L1565.27 298.381L2336.07 1137.49L1548.22 314.369L2216.39 1237.29L1529.43 328.27L2085.94 1322.52L1509.15 339.895L1946.47 1392.03L1487.66 349.087L1799.88 1444.87L1465.25 355.723L1648.14 1480.35L1442.22 359.711L1493.32 1497.96L1418.88 360.999L1337.49 1497.49L1395.55 359.569L1182.77 1478.92L1372.54 355.439L1031.25 1442.53L1350.17 348.667L884.986 1388.78L1328.73 339.343L745.947 1318.42L1308.53 327.595L616.017 1232.39L1289.82 313.579L496.953 1131.86L1272.87 297.487L390.364 1018.19L1257.9 279.535L297.692 892.916L1245.11 259.967L220.191 757.727L1234.69 239.047L158.909 614.455L1226.76 217.059L114.673 465.038L1221.44 194.298L88.0831 311.495L1218.8 171.074L79.4981 155.903L1218.87 147.699L89.0342 0.367367L1221.65 124.492L116.563 -153.01L1227.11 101.764L161.711 -302.154L1235.17 79.8241L223.868 -445.049L1245.73 58.9683L302.195 -579.761L1258.63 39.4788L395.63 -704.47L1273.71 21.6191L502.912 -817.487L1290.76 5.63074L622.589 -917.286L1309.55 -8.26999L753.043 -1002.52L1329.83 -19.8951L892.509 -1072.03L1351.32 -29.0875L1039.1 -1124.87L1373.74 -35.7228L1190.84 -1160.35L1396.77 -39.7113L1345.67 -1177.96L1420.11 -40.9991L1501.5 -1177.49Z" fill="#FFFA76"/>
</svg>
