<svg width="1401" height="1080" viewBox="0 0 1401 1080" fill="none" xmlns="http://www.w3.org/2000/svg">
<path d="M1422 -1177.49L1363.94 -39.5686L1576.72 -1158.92L1386.95 -35.4393L1728.23 -1122.53L1409.32 -28.6672L1874.5 -1068.78L1430.75 -19.3435L2013.54 -998.42L1450.96 -7.59456L2143.47 -912.394L1469.66 6.4207L2262.53 -811.865L1486.62 22.513L2369.12 -698.193L1501.59 40.4646L2461.79 -572.916L1514.37 60.0326L2539.29 -437.727L1524.8 80.9526L2600.58 -294.455L1532.72 102.941L2644.81 -145.038L1538.05 125.702L2671.4 8.50501L1540.69 148.926L2679.99 164.097L1540.62 172.3L2670.45 319.633L1537.83 195.508L2642.92 473.01L1532.37 218.236L2597.77 622.154L1524.31 240.176L2535.62 765.049L1513.76 261.032L2457.29 899.761L1500.85 280.521L2363.86 1024.47L1485.77 298.381L2256.57 1137.49L1468.72 314.369L2136.9 1237.29L1449.93 328.27L2006.44 1322.52L1429.65 339.895L1866.98 1392.03L1408.16 349.087L1720.38 1444.87L1385.75 355.723L1568.65 1480.35L1362.72 359.711L1413.82 1497.96L1339.38 360.999L1257.99 1497.49L1316.05 359.569L1103.27 1478.92L1293.04 355.439L951.755 1442.53L1270.67 348.667L805.488 1388.78L1249.24 339.343L666.449 1318.42L1229.03 327.595L536.519 1232.39L1210.32 313.579L417.455 1131.86L1193.37 297.487L310.866 1018.19L1178.4 279.535L218.194 892.916L1165.62 259.967L140.693 757.727L1155.19 239.047L79.4104 614.455L1147.26 217.059L35.175 465.038L1141.94 194.298L8.585 311.495L1139.3 171.074L-6.11704e-06 155.903L1139.37 147.699L9.53613 0.367367L1142.16 124.492L37.0645 -153.01L1147.61 101.764L82.2126 -302.154L1155.68 79.8241L144.37 -445.049L1166.23 58.9683L222.696 -579.761L1179.13 39.4788L316.132 -704.47L1194.21 21.6191L423.414 -817.487L1211.26 5.63074L543.091 -917.286L1230.06 -8.26999L673.545 -1002.52L1250.33 -19.8951L813.011 -1072.03L1271.83 -29.0875L959.604 -1124.87L1294.24 -35.7228L1111.34 -1160.35L1317.27 -39.7113L1266.17 -1177.96L1340.61 -40.9991L1422 -1177.49Z" fill="#FFFA76"/>
</svg>
