<svg width="1399" height="1080" viewBox="0 0 1399 1080" fill="none" xmlns="http://www.w3.org/2000/svg">
<path d="M1337.73 -1180L1349.42 -40.6599L1493.3 -1170.94L1372.64 -37.9463L1646.76 -1143.88L1395.38 -32.5559L1796.04 -1099.19L1417.34 -24.5614L1939.12 -1037.47L1438.23 -14.071L2074.07 -959.554L1457.76 -1.22681L2199.07 -866.5L1475.67 13.7979L2312.41 -759.564L1491.71 30.7997L2412.58 -640.193L1505.67 49.5487L2498.21 -510L1517.35 69.7914L2568.14 -370.747L1526.61 91.2539L2621.44 -224.316L1533.31 113.646L2657.38 -72.6886L1537.37 136.665L2675.47 82.0859L1538.73 160L2675.47 237.914L1537.37 183.335L2657.38 392.689L1533.31 206.354L2621.44 544.316L1526.61 228.746L2568.14 690.747L1517.35 250.209L2498.21 830L1505.67 270.451L2412.58 960.192L1491.71 289.2L2312.41 1079.56L1475.67 306.202L2199.07 1186.5L1457.76 321.227L2074.07 1279.55L1438.23 334.071L1939.12 1357.47L1417.34 344.561L1796.04 1419.19L1395.38 352.556L1646.76 1463.88L1372.64 357.946L1493.3 1490.94L1349.42 360.66L1337.73 1500L1326.05 360.66L1182.17 1490.94L1302.83 357.946L1028.71 1463.88L1280.09 352.556L879.426 1419.19L1258.12 344.561L736.342 1357.47L1237.23 334.071L601.391 1279.55L1217.7 321.227L476.398 1186.5L1199.8 306.202L363.052 1079.56L1183.76 289.2L262.888 960.192L1169.8 270.451L177.259 830L1158.11 250.209L107.323 690.747L1148.85 228.746L54.027 544.316L1142.15 206.354L18.0906 392.689L1138.09 183.335L0 237.914L1136.73 160L0 82.0859L1138.09 136.665L18.0906 -72.6886L1142.15 113.646L54.027 -224.316L1148.85 91.2539L107.323 -370.747L1158.11 69.7914L177.259 -510L1169.8 49.5487L262.888 -640.193L1183.76 30.7997L363.052 -759.564L1199.8 13.7979L476.398 -866.5L1217.7 -1.22681L601.391 -959.554L1237.23 -14.071L736.342 -1037.47L1258.12 -24.5614L879.426 -1099.19L1280.09 -32.5559L1028.71 -1143.88L1302.83 -37.9463L1182.17 -1170.94L1326.05 -40.6599L1337.73 -1180Z" fill="#FFFA76"/>
</svg>
