<svg width="451" height="403" viewBox="0 0 451 403" fill="none" xmlns="http://www.w3.org/2000/svg">
<g filter="url(#filter0_i_3242_71)">
<rect x="89" y="155.021" width="272" height="247" rx="63" fill="#00AAFF"/>
</g>
<path d="M336.641 173.021C378.805 179.145 412.055 191.808 431.428 209.119C450.8 226.431 455.257 247.463 444.133 269.076C433.009 290.69 406.901 311.726 369.705 329.045C332.509 346.364 286.219 359.037 237.745 365.173C189.271 371.309 141.213 370.578 100.741 363.091C60.2695 355.603 29.5548 341.76 13.1825 323.627C-3.18973 305.494 -4.34232 284.044 9.89632 262.478C24.1353 240.911 53.0026 220.385 92.1893 203.964L96.4549 206.055C60.4367 222.68 39.1241 243.672 41.4334 264.711C45.8853 305.266 136.426 330.634 243.661 321.372C350.896 312.11 434.219 271.725 429.767 231.17C426.893 204.991 388.147 185.142 332.194 176.85L336.641 173.021Z" fill="url(#paint0_linear_3242_71)"/>
<g filter="url(#filter1_i_3242_71)">
<rect x="89" y="155.021" width="272" height="142" rx="63" fill="#00AAFF"/>
</g>
<g filter="url(#filter2_i_3242_71)">
<path d="M171.5 0C186.234 9.43309 196 25.9452 196 44.7383V144.304C196 163.097 186.234 179.609 171.5 189.042C156.766 179.609 147 163.097 147 144.304V44.7383C147 25.9452 156.766 9.43309 171.5 0Z" fill="#00AAFF"/>
</g>
<g filter="url(#filter3_i_3242_71)">
<path d="M268.5 0.0205078C283.234 9.45356 293 25.9665 293 44.7598V143.798C293 162.591 283.234 179.103 268.5 188.536C253.766 179.103 244 162.591 244 143.798V44.7598C244 25.9665 253.766 9.45356 268.5 0.0205078Z" fill="#00AAFF"/>
</g>
<ellipse cx="147.802" cy="243.428" rx="34.0722" ry="9.5" transform="rotate(32.7143 147.802 243.428)" fill="#005091"/>
<ellipse cx="34.0722" cy="9.5" rx="34.0722" ry="9.5" transform="matrix(-0.841376 0.54045 0.54045 0.841376 326.335 217.021)" fill="#005091"/>
<path d="M191.016 283.84C191.007 289.086 206.014 293.365 224.534 293.395C243.054 293.426 258.075 289.198 258.084 283.951C258.093 278.704 241.772 286.448 223.252 286.418C204.732 286.387 191.025 278.593 191.016 283.84Z" fill="#005091"/>
<defs>
<filter id="filter0_i_3242_71" x="88" y="151.021" width="273" height="251" filterUnits="userSpaceOnUse" color-interpolation-filters="sRGB">
<feFlood flood-opacity="0" result="BackgroundImageFix"/>
<feBlend mode="normal" in="SourceGraphic" in2="BackgroundImageFix" result="shape"/>
<feColorMatrix in="SourceAlpha" type="matrix" values="0 0 0 0 0 0 0 0 0 0 0 0 0 0 0 0 0 0 127 0" result="hardAlpha"/>
<feOffset dx="-1" dy="-15"/>
<feGaussianBlur stdDeviation="2"/>
<feComposite in2="hardAlpha" operator="arithmetic" k2="-1" k3="1"/>
<feColorMatrix type="matrix" values="0 0 0 0 0.5 0 0 0 0 1 0 0 0 0 0 0 0 0 0.53 0"/>
<feBlend mode="normal" in2="shape" result="effect1_innerShadow_3242_71"/>
</filter>
<filter id="filter1_i_3242_71" x="89" y="155.021" width="272" height="142" filterUnits="userSpaceOnUse" color-interpolation-filters="sRGB">
<feFlood flood-opacity="0" result="BackgroundImageFix"/>
<feBlend mode="normal" in="SourceGraphic" in2="BackgroundImageFix" result="shape"/>
<feColorMatrix in="SourceAlpha" type="matrix" values="0 0 0 0 0 0 0 0 0 0 0 0 0 0 0 0 0 0 127 0" result="hardAlpha"/>
<feMorphology radius="12" operator="dilate" in="SourceAlpha" result="effect1_innerShadow_3242_71"/>
<feOffset dx="-14" dy="28"/>
<feGaussianBlur stdDeviation="1.15"/>
<feComposite in2="hardAlpha" operator="arithmetic" k2="-1" k3="1"/>
<feColorMatrix type="matrix" values="0 0 0 0 0 0 0 0 0 0.966667 0 0 0 0 1 0 0 0 0.81 0"/>
<feBlend mode="normal" in2="shape" result="effect1_innerShadow_3242_71"/>
</filter>
<filter id="filter2_i_3242_71" x="147" y="0" width="49" height="189.042" filterUnits="userSpaceOnUse" color-interpolation-filters="sRGB">
<feFlood flood-opacity="0" result="BackgroundImageFix"/>
<feBlend mode="normal" in="SourceGraphic" in2="BackgroundImageFix" result="shape"/>
<feColorMatrix in="SourceAlpha" type="matrix" values="0 0 0 0 0 0 0 0 0 0 0 0 0 0 0 0 0 0 127 0" result="hardAlpha"/>
<feMorphology radius="12" operator="dilate" in="SourceAlpha" result="effect1_innerShadow_3242_71"/>
<feOffset dx="14" dy="28"/>
<feGaussianBlur stdDeviation="1.15"/>
<feComposite in2="hardAlpha" operator="arithmetic" k2="-1" k3="1"/>
<feColorMatrix type="matrix" values="0 0 0 0 0 0 0 0 0 0.966667 0 0 0 0 1 0 0 0 0.81 0"/>
<feBlend mode="normal" in2="shape" result="effect1_innerShadow_3242_71"/>
</filter>
<filter id="filter3_i_3242_71" x="244" y="0.0205078" width="49" height="188.516" filterUnits="userSpaceOnUse" color-interpolation-filters="sRGB">
<feFlood flood-opacity="0" result="BackgroundImageFix"/>
<feBlend mode="normal" in="SourceGraphic" in2="BackgroundImageFix" result="shape"/>
<feColorMatrix in="SourceAlpha" type="matrix" values="0 0 0 0 0 0 0 0 0 0 0 0 0 0 0 0 0 0 127 0" result="hardAlpha"/>
<feMorphology radius="12" operator="dilate" in="SourceAlpha" result="effect1_innerShadow_3242_71"/>
<feOffset dx="14" dy="28"/>
<feGaussianBlur stdDeviation="1.15"/>
<feComposite in2="hardAlpha" operator="arithmetic" k2="-1" k3="1"/>
<feColorMatrix type="matrix" values="0 0 0 0 0 0 0 0 0 0.966667 0 0 0 0 1 0 0 0 0.81 0"/>
<feBlend mode="normal" in2="shape" result="effect1_innerShadow_3242_71"/>
</filter>
<linearGradient id="paint0_linear_3242_71" x1="225.06" y1="173.021" x2="225.06" y2="369.295" gradientUnits="userSpaceOnUse">
<stop stop-color="#002946"/>
<stop offset="1" stop-color="#00FF11"/>
</linearGradient>
</defs>
</svg>
