<svg width="197" height="315" viewBox="0 0 197 315" fill="none" xmlns="http://www.w3.org/2000/svg">
<path d="M80.9451 215.168C81.9968 216.417 83.4927 218.518 85.5699 220.773C89.4857 225.023 95.2851 233.258 99.6733 238.68C101.02 240.344 102.231 242.138 103.739 243.783C105.206 245.383 109.019 249.21 114.872 255.254C120.219 260.776 123.685 263.079 126.409 265.246C128.521 266.927 132.159 269.408 135.621 271.601C142.272 275.815 146.316 277.63 147.772 278.31C151.189 279.908 157.205 282.585 160.965 283.705C163.93 284.588 165.977 283.988 174.372 281.407C180.159 279.627 183.437 276.511 184.763 274.828C185.627 273.731 187.299 268.393 189.678 260.749C191.269 255.635 192.445 253.407 193.479 249.8C194.047 247.818 192.558 243.795 191.227 239.703C189.201 233.473 186.801 229.481 183.896 223.337C179.191 213.387 175.122 206.127 173.595 203.869C171.157 200.264 167.258 195.457 162.513 190.099C160.114 187.389 157.608 185.003 153.609 181.94C149.61 178.876 144.162 175.285 136.535 170.856C128.909 166.427 119.268 161.27 111.771 156.807C104.273 152.343 99.2109 148.729 95.9268 146.238C91.265 142.701 88.4762 139.606 85.542 136.187C79.9065 129.62 77.1643 126.191 74.5087 122.161C73.7967 121.08 73.0531 120.039 70.0281 114.627C67.0032 109.214 61.718 99.4619 58.8512 94.0667C55.6128 87.9722 54.9245 84.73 54.0803 79.9476C53.2661 75.3346 53.4852 71.2123 54.1634 67.5257C54.807 64.0273 56.4706 60.9858 59.2074 56.9483C60.9114 54.4345 63.8224 51.7524 66.5764 49.5795C71.702 45.5354 75.802 44.3884 77.8653 44.1216C80.7736 43.7457 83.1041 44.5433 85.4563 45.4851C87.8648 46.4494 93.0238 50.6972 96.5784 54.2067C100.493 58.0718 103.363 63.7475 105.996 68.3169C109.634 74.6299 112.032 80.1708 113.783 84.104C119.238 96.36 122.927 99.9165 124.817 102.478C126.663 104.98 129.189 107.502 133.001 109.835C139.184 113.619 144.484 114.15 146.886 114.34C150.059 114.591 155.39 112.441 158.713 110.08C160.984 108.466 162.54 105.105 165.132 101.871C167.356 99.097 171.611 94.2873 174.506 90.5032C179.095 84.5036 180.686 80.4837 181.398 78.4908C182.61 75.0968 184.526 73.4289 184.951 70.7707C185.393 68.0015 183.835 64.5945 182.322 60.1475C181.153 56.7109 177.203 48.9827 174.149 44.2754C173.491 43.2622 172.517 42.6872 171.531 41.8503C169.39 40.0323 164.856 42.5246 162.547 44.7172C161.38 45.8251 161.036 47.3974 160.371 49.101C159.419 51.5384 156.799 55.1956 154.789 57.4301C153.137 59.2664 151.362 60.5658 149.876 62.3373C149.125 63.233 148.541 64.2086 146.539 65.5238C142.029 68.4861 137.907 69.5824 136.512 69.4978C135.277 69.423 134.01 69.9907 131.621 69.5307C128.281 68.8874 123.857 66.281 119.769 63.819C114.731 60.785 112.621 58.4098 109.63 55.4647C107.007 52.8825 104.846 49.4692 101.694 43.914C97.6709 36.8228 93.4077 29.2704 91.5414 26.1799C89.9184 23.4922 87.8082 20.6465 85.6595 17.7846C83.8349 15.3545 81.0069 13.3642 79.0197 11.4956C77.2385 9.82062 75.5049 9.17292 73.4079 7.84081C70.7084 6.12593 65.9349 4.4394 60.6128 3.06758C54.9097 1.59759 53.5809 3.28072 49.909 4.74385C47.1454 5.84503 42.9443 8.46053 39.745 10.5788C34.3927 14.1224 32.223 16.7602 31.5379 17.7484C30.2364 19.6257 29.156 21.0675 26.642 26.6052C25.0804 30.0449 24.7552 34.5394 23.7892 38.7444C23.005 42.1581 22.8804 46.5259 22.9257 50.642C22.9713 54.7914 23.5614 58.9878 23.9743 63.803C24.2304 66.7896 25.0912 71.11 26.6696 77.4154C28.248 83.7209 30.6483 91.9396 32.5371 97.7096C35.4342 106.56 37.7339 110.981 39.1799 113.468C40.6646 116.021 43.6317 119.796 47.5909 125.472C51.8154 131.527 55.5165 135.278 57.9699 137.776C60.9347 140.793 65.381 146.703 70.8839 152.935C74.9276 157.515 78.3283 160.553 84.2806 166.332C88.6842 170.607 96.1155 176.726 100.785 180.609C105.454 184.493 107.192 185.731 109.99 187.163C116.629 190.559 121.363 191.915 123.177 192.227C126.866 192.864 129.607 194.648 131.607 195.685C133.477 196.654 135.139 197.362 137.272 198.951C140.033 201.008 141.681 202.787 143.756 205.129C149.793 211.945 152.709 221.034 154.033 224.052C155.221 226.763 155.306 228.896 155.097 231.083C154.868 233.492 153.68 234.801 152.563 235.841C152.119 236.255 149.107 238.096 144.463 240.34C141.434 241.803 138.902 241.08 136.954 241.1C134.829 241.121 131.88 238.97 127.461 236.336C124.726 234.706 119.898 230.892 116.768 228.501C112.345 225.121 108.318 222.041 103.141 218.259C98.4877 214.86 93.3691 208.2 88.513 202.253C84.7665 197.665 81.3213 192.619 79.4032 189.902C77.4183 187.091 74.0098 184.162 65.3029 177.53C62.2177 175.18 58.3179 173.98 54.6009 172.556C50.8839 171.132 47.4479 170.065 44.4457 169.533C38.8441 168.54 34.6784 168.739 30.7378 168.273C25.8593 167.697 22.9289 168.537 21.8338 168.93C20.5504 169.39 18.7831 169.617 17.0186 170.358C15.3197 171.072 11.5765 172.293 7.39689 174.562C4.57663 176.093 3.41446 180.319 2.72874 183.936C2.20981 186.674 2.70836 191.863 2.91589 195.93C3.16739 200.858 3.94797 206.758 4.48878 209.909C5.19473 214.022 5.55963 216.574 6.48261 219.696C7.87759 224.415 9.23227 230.145 10.8261 234.85C11.9861 238.275 13.226 241.274 20.8867 256.163C24.548 263.279 28.4639 267.234 32.3178 271.646C35.0634 274.79 37.4431 277.908 40.2705 281.22C41.7838 282.992 43.5804 284.101 46.6369 286.904C56.5589 296.002 58.3309 296.806 60.048 298.079C61.9308 299.474 65.1053 301.925 67.1167 302.787C69.2452 303.7 74.4437 306.595 78.4734 308.414C81.7512 309.893 85.1902 310.239 87.8002 311.487C89.7053 312.399 91.6588 312.453 94.8774 311.416C95.7902 311.122 96.3768 310.907 96.7484 310.085C97.6427 308.107 97.0726 305.319 96.5063 303.267C95.7566 300.551 91.5351 292.58 88.5922 287.99C87.1274 285.706 85.3609 283.811 83.6948 282.062C82.2065 280.5 79.5326 278.198 76.6267 276.005C74.3975 274.322 72.2812 272.764 69.0771 270.469C67.3132 269.206 65.1659 268.537 62.9735 267.328C60.1854 265.79 53.7904 261.508 50.5423 259.552C47.6283 257.798 44.138 254.77 42.3523 253.178C40.474 251.504 39.2884 249.903 37.8894 248.375C36.4114 246.76 35.1627 244.301 32.5287 239.542C29.9713 234.922 26.489 228.064 26.1631 225.521C25.8939 223.421 26.3367 221.819 26.9116 219.174C27.3112 217.336 27.8301 215.268 28.5785 213.426C29.1809 211.944 30.4194 211.383 31.7276 210.427C33.3972 209.207 35.7325 207.528 41.3528 204.502C43.2842 203.462 44.985 204.5 46.2287 204.574C47.5065 204.65 49.2362 205.347 51.0165 205.775C52.5227 206.137 54.1824 206.558 55.5382 206.847C57.121 207.185 58.6795 207.104 60.367 206.497C61.8509 205.964 63.5887 206.709 65.4461 207.002C66.9924 207.246 69.0502 208.723 70.8608 209.593C72.6423 210.448 74.289 210.691 75.8975 211.747C77.3524 212.705 78.8651 214.076 80.3847 215.542C80.8408 215.937 81.4461 216.336 82.0698 216.747" stroke="url(#paint0_linear_3242_81)" stroke-width="5" stroke-linecap="round"/>
<defs>
<linearGradient id="paint0_linear_3242_81" x1="-5.89332" y1="204.823" x2="201.794" y2="96.4932" gradientUnits="userSpaceOnUse">
<stop stop-color="#B70AB4"/>
<stop offset="1" stop-color="#0DFF00"/>
</linearGradient>
</defs>
</svg>
