<svg width="474" height="195" viewBox="0 0 474 195" fill="none" xmlns="http://www.w3.org/2000/svg">
<path d="M388.117 22.3995C388.616 17.5924 388.866 15.1888 389.575 14.6682C390.185 14.2209 390.997 14.1578 391.673 14.5052C392.459 14.9095 393.102 17.2438 394.388 21.9123L398.955 38.4957C399.128 39.124 399.214 39.4381 399.381 39.6971C399.529 39.9263 399.722 40.1232 399.949 40.2757C400.204 40.4481 400.517 40.5411 401.142 40.7272L416.877 45.4115C419.355 46.1492 420.594 46.518 420.998 47.1579C421.348 47.7125 421.405 48.4016 421.151 49.0032C420.858 49.6972 419.696 50.2526 417.371 51.3635L402.611 58.4176C402.024 58.6978 401.731 58.8379 401.507 59.0475C401.309 59.233 401.151 59.4572 401.043 59.7063C400.921 59.9878 400.887 60.3112 400.82 60.9582L399.048 78.0343C398.549 82.8414 398.299 85.245 397.59 85.7656C396.98 86.2128 396.168 86.276 395.492 85.9286C394.706 85.5243 394.063 83.19 392.777 78.5215L388.21 61.9381C388.037 61.3098 387.951 60.9957 387.783 60.7367C387.636 60.5075 387.443 60.3106 387.216 60.1581C386.961 59.9857 386.648 59.8927 386.023 59.7066L370.288 55.0223C367.81 54.2846 366.571 53.9158 366.167 53.2759C365.817 52.7213 365.76 52.0321 366.014 51.4306C366.307 50.7366 367.469 50.1812 369.794 49.0703L384.554 42.0162C385.141 41.736 385.434 41.5959 385.658 41.3863C385.856 41.2008 386.014 40.9766 386.122 40.7275C386.244 40.446 386.278 40.1225 386.345 39.4756L388.117 22.3995Z" fill="#FFCE66"/>
<path d="M433.48 88.5689C433.978 83.7617 434.228 81.3581 434.938 80.8376C435.547 80.3903 436.36 80.3272 437.035 80.6746C437.822 81.0789 438.465 83.4131 439.75 88.0816L444.317 104.665C444.49 105.293 444.577 105.607 444.744 105.866C444.892 106.096 445.085 106.293 445.311 106.445C445.567 106.617 445.879 106.71 446.504 106.897L462.239 111.581C464.717 112.319 465.956 112.687 466.36 113.327C466.71 113.882 466.767 114.571 466.513 115.173C466.22 115.867 465.058 116.422 462.734 117.533L447.973 124.587C447.387 124.867 447.094 125.007 446.87 125.217C446.671 125.402 446.513 125.627 446.405 125.876C446.283 126.157 446.25 126.481 446.182 127.128L444.41 144.204C443.911 149.011 443.662 151.414 442.952 151.935C442.343 152.382 441.53 152.445 440.855 152.098C440.068 151.694 439.425 149.359 438.14 144.691L433.573 128.107C433.399 127.479 433.313 127.165 433.146 126.906C432.998 126.677 432.805 126.48 432.579 126.327C432.323 126.155 432.011 126.062 431.386 125.876L415.65 121.192C413.173 120.454 411.934 120.085 411.53 119.445C411.18 118.891 411.122 118.202 411.377 117.6C411.67 116.906 412.832 116.351 415.156 115.24L429.917 108.186C430.503 107.905 430.796 107.765 431.02 107.556C431.218 107.37 431.376 107.146 431.484 106.897C431.607 106.615 431.64 106.292 431.707 105.645L433.48 88.5689Z" fill="#FFCE66"/>
<path d="M75.4031 46.7004C74.1174 42.0319 73.4745 39.6977 72.6881 39.2934C72.0124 38.946 71.2002 39.0091 70.5905 39.4564C69.8808 39.977 69.6314 42.3806 69.1325 47.1877L67.3603 64.2638C67.2931 64.9107 67.2596 65.2342 67.1374 65.5157C67.0292 65.7648 66.8712 65.9889 66.673 66.1745C66.4491 66.3841 66.1559 66.5242 65.5696 66.8044L50.8091 73.8585C48.4847 74.9693 47.3225 75.5248 47.0294 76.2188C46.7754 76.8203 46.8326 77.5095 47.1826 78.0641C47.5865 78.704 48.8254 79.0728 51.3033 79.8105L67.0385 84.4948C67.6635 84.6809 67.9761 84.7739 68.2317 84.9462C68.458 85.0988 68.651 85.2957 68.7988 85.5249C68.9659 85.7839 69.0524 86.098 69.2254 86.7262L73.7925 103.31C75.0782 107.978 75.7211 110.312 76.5075 110.717C77.1832 111.064 77.9954 111.001 78.6051 110.554C79.3148 110.033 79.5642 107.63 80.0631 102.822L81.8353 85.7463C81.9025 85.0994 81.936 84.776 82.0582 84.4945C82.1664 84.2454 82.3244 84.0212 82.5226 83.8357C82.7465 83.6261 83.0397 83.486 83.626 83.2058L98.3865 76.1517C100.711 75.0408 101.873 74.4854 102.166 73.7914C102.42 73.1898 102.363 72.5006 102.013 71.946C101.609 71.3062 100.37 70.9373 97.8923 70.1997L82.1571 65.5154C81.5321 65.3293 81.2195 65.2363 80.9639 65.0639C80.7376 64.9114 80.5446 64.7145 80.3968 64.4853C80.2297 64.2263 80.1432 63.9122 79.9702 63.2839L75.4031 46.7004Z" fill="#FFCE66"/>
<path d="M41.5405 119.026C40.2548 114.358 39.6119 112.024 38.8255 111.619C38.1498 111.272 37.3376 111.335 36.7279 111.782C36.0182 112.303 35.7688 114.706 35.2699 119.514L33.4977 136.59C33.4305 137.237 33.397 137.56 33.2748 137.842C33.1666 138.091 33.0086 138.315 32.8104 138.5C32.5865 138.71 32.2933 138.85 31.707 139.13L16.9465 146.184C14.6221 147.295 13.4599 147.851 13.1668 148.545C12.9128 149.146 12.97 149.835 13.32 150.39C13.7239 151.03 14.9628 151.399 17.4407 152.136L33.1759 156.821C33.8009 157.007 34.1134 157.1 34.3691 157.272C34.5954 157.425 34.7883 157.622 34.9362 157.851C35.1033 158.11 35.1898 158.424 35.3628 159.052L39.9299 175.636C41.2156 180.304 41.8584 182.638 42.6449 183.043C43.3206 183.39 44.1328 183.327 44.7425 182.88C45.4521 182.359 45.7016 179.955 46.2005 175.148L47.9727 158.072C48.0399 157.425 48.0734 157.102 48.1956 156.82C48.3038 156.571 48.4618 156.347 48.66 156.162C48.8839 155.952 49.1771 155.812 49.7634 155.532L64.5239 148.478C66.8483 147.367 68.0105 146.811 68.3036 146.117C68.5576 145.516 68.5004 144.827 68.1504 144.272C67.7465 143.632 66.5076 143.263 64.0297 142.526L48.2945 137.841C47.6695 137.655 47.3569 137.562 47.1013 137.39C46.875 137.237 46.682 137.04 46.5342 136.811C46.3671 136.552 46.2806 136.238 46.1076 135.61L41.5405 119.026Z" fill="#FFCE66"/>
</svg>
