<svg width="163" height="156" viewBox="0 0 163 156" fill="none" xmlns="http://www.w3.org/2000/svg">
<g filter="url(#filter0_i_3242_139)">
<path d="M67.9977 7.63475C73.7354 -2.54492 88.3945 -2.54492 94.1322 7.63475L109.434 34.7836C111.575 38.5813 115.262 41.2598 119.535 42.122L150.084 48.2859C161.538 50.597 166.068 64.5387 158.16 73.1413L137.068 96.084C134.118 99.2933 132.71 103.627 133.21 107.958L136.788 138.916C138.13 150.524 126.27 159.141 115.645 154.278L87.3074 141.308C83.3435 139.494 78.7864 139.494 74.8225 141.308L46.485 154.278C35.8597 159.141 24.0002 150.524 25.3418 138.916L28.9197 107.958C29.4202 103.627 28.012 99.2933 25.0617 96.084L3.97021 73.1413C-3.93818 64.5387 0.591741 50.597 12.0462 48.2859L42.595 42.122C46.8682 41.2598 50.5549 38.5813 52.6955 34.7836L67.9977 7.63475Z" fill="url(#paint0_linear_3242_139)"/>
</g>
<defs>
<filter id="filter0_i_3242_139" x="-1" y="-10" width="163.13" height="165.663" filterUnits="userSpaceOnUse" color-interpolation-filters="sRGB">
<feFlood flood-opacity="0" result="BackgroundImageFix"/>
<feBlend mode="normal" in="SourceGraphic" in2="BackgroundImageFix" result="shape"/>
<feColorMatrix in="SourceAlpha" type="matrix" values="0 0 0 0 0 0 0 0 0 0 0 0 0 0 0 0 0 0 127 0" result="hardAlpha"/>
<feOffset dx="-1" dy="-10"/>
<feGaussianBlur stdDeviation="6.65"/>
<feComposite in2="hardAlpha" operator="arithmetic" k2="-1" k3="1"/>
<feColorMatrix type="matrix" values="0 0 0 0 0.371795 0 0 0 0 0.0576923 0 0 0 0 1 0 0 0 0.26 0"/>
<feBlend mode="normal" in2="shape" result="effect1_innerShadow_3242_139"/>
</filter>
<linearGradient id="paint0_linear_3242_139" x1="81.0649" y1="-15.5489" x2="81.0649" y2="184.451" gradientUnits="userSpaceOnUse">
<stop offset="0.295728" stop-color="#00C8FF"/>
<stop offset="1" stop-color="#DE00E2"/>
</linearGradient>
</defs>
</svg>
