<svg width="140" height="134" viewBox="0 0 140 134" fill="none" xmlns="http://www.w3.org/2000/svg">
<g filter="url(#filter0_i_3242_135)">
<path d="M56.585 7.63475C62.3227 -2.54492 76.9818 -2.54492 82.7195 7.63475L94.2129 28.026C96.3534 31.8237 100.04 34.5023 104.313 35.3645L127.258 39.9941C138.713 42.3052 143.243 56.2469 135.334 64.8495L119.493 82.0816C116.542 85.2909 115.134 89.6249 115.635 93.9554L118.322 117.208C119.664 128.816 107.804 137.432 97.1787 132.569L75.8947 122.828C71.9308 121.014 67.3737 121.014 63.4098 122.828L42.1258 132.569C31.5004 137.432 19.6409 128.816 20.9825 117.208L23.6699 93.9554C24.1704 89.6249 22.7621 85.2909 19.8118 82.0816L3.97021 64.8495C-3.93818 56.2469 0.591733 42.3052 12.0462 39.9941L34.9911 35.3645C39.2644 34.5023 42.9511 31.8237 45.0916 28.026L56.585 7.63475Z" fill="url(#paint0_linear_3242_135)"/>
</g>
<defs>
<filter id="filter0_i_3242_135" x="-1" y="-5.2" width="140.304" height="139.154" filterUnits="userSpaceOnUse" color-interpolation-filters="sRGB">
<feFlood flood-opacity="0" result="BackgroundImageFix"/>
<feBlend mode="normal" in="SourceGraphic" in2="BackgroundImageFix" result="shape"/>
<feColorMatrix in="SourceAlpha" type="matrix" values="0 0 0 0 0 0 0 0 0 0 0 0 0 0 0 0 0 0 127 0" result="hardAlpha"/>
<feOffset dx="-1" dy="-7"/>
<feGaussianBlur stdDeviation="2.6"/>
<feComposite in2="hardAlpha" operator="arithmetic" k2="-1" k3="1"/>
<feColorMatrix type="matrix" values="0 0 0 0 0.371795 0 0 0 0 0.0576923 0 0 0 0 1 0 0 0 0.26 0"/>
<feBlend mode="normal" in2="shape" result="effect1_innerShadow_3242_135"/>
</filter>
<linearGradient id="paint0_linear_3242_135" x1="69.6523" y1="-15.5489" x2="69.6523" y2="160.451" gradientUnits="userSpaceOnUse">
<stop stop-color="#FFCC00"/>
<stop offset="1" stop-color="#FF8000"/>
</linearGradient>
</defs>
</svg>
