<svg width="97" height="96" viewBox="0 0 97 96" fill="none" xmlns="http://www.w3.org/2000/svg">
<g clip-path="url(#paint0_diamond_3242_141_clip_path)" data-figma-skip-parse="true"><g transform="matrix(0 0.0555 -0.0535 0 48.4772 52.5215)"><rect x="0" y="0" width="1018.02" height="1018.69" fill="url(#paint0_diamond_3242_141)" opacity="1" shape-rendering="crispEdges"/><rect x="0" y="0" width="1018.02" height="1018.69" transform="scale(1 -1)" fill="url(#paint0_diamond_3242_141)" opacity="1" shape-rendering="crispEdges"/><rect x="0" y="0" width="1018.02" height="1018.69" transform="scale(-1 1)" fill="url(#paint0_diamond_3242_141)" opacity="1" shape-rendering="crispEdges"/><rect x="0" y="0" width="1018.02" height="1018.69" transform="scale(-1)" fill="url(#paint0_diamond_3242_141)" opacity="1" shape-rendering="crispEdges"/></g></g><path d="M45.8822 1.4946C47.0383 -0.498209 49.9161 -0.498208 51.0721 1.4946L65.4425 26.2658C65.8542 26.9756 66.5387 27.4857 67.3366 27.6774L94.653 34.2404C96.818 34.7606 97.6818 37.375 96.2529 39.0827L77.7625 61.1797C77.2553 61.7858 77.0078 62.5675 77.0737 63.355L79.5032 92.3962C79.6929 94.6631 77.3892 96.308 75.3066 95.3928L49.6842 84.132C48.915 83.7939 48.0393 83.7939 47.2701 84.132L21.6477 95.3928C19.5652 96.308 17.2615 94.6631 17.4511 92.3962L19.8807 63.355C19.9466 62.5675 19.699 61.7858 19.1919 61.1797L0.70147 39.0827C-0.72747 37.375 0.136352 34.7606 2.30139 34.2404L29.6178 27.6774C30.4156 27.4857 31.1001 26.9756 31.5119 26.2658L45.8822 1.4946Z" data-figma-gradient-fill="{&#34;type&#34;:&#34;GRADIENT_DIAMOND&#34;,&#34;stops&#34;:[{&#34;color&#34;:{&#34;r&#34;:1.0,&#34;g&#34;:0.89687502384185791,&#34;b&#34;:0.31250,&#34;a&#34;:1.0},&#34;position&#34;:0.0},{&#34;color&#34;:{&#34;r&#34;:1.0,&#34;g&#34;:0.88461571931838989,&#34;b&#34;:0.42307692766189575,&#34;a&#34;:1.0},&#34;position&#34;:1.0}],&#34;stopsVar&#34;:[{&#34;color&#34;:{&#34;r&#34;:1.0,&#34;g&#34;:0.89687502384185791,&#34;b&#34;:0.31250,&#34;a&#34;:1.0},&#34;position&#34;:0.0},{&#34;color&#34;:{&#34;r&#34;:1.0,&#34;g&#34;:0.88461571931838989,&#34;b&#34;:0.42307692766189575,&#34;a&#34;:1.0},&#34;position&#34;:1.0}],&#34;transform&#34;:{&#34;m00&#34;:6.5518608333842154e-15,&#34;m01&#34;:-107.0,&#34;m02&#34;:101.97717285156250,&#34;m10&#34;:111.0,&#34;m11&#34;:6.7967901509616898e-15,&#34;m12&#34;:-2.9785156250},&#34;opacity&#34;:1.0,&#34;blendMode&#34;:&#34;NORMAL&#34;,&#34;visible&#34;:true}"/>
<defs>
<clipPath id="paint0_diamond_3242_141_clip_path"><path d="M45.8822 1.4946C47.0383 -0.498209 49.9161 -0.498208 51.0721 1.4946L65.4425 26.2658C65.8542 26.9756 66.5387 27.4857 67.3366 27.6774L94.653 34.2404C96.818 34.7606 97.6818 37.375 96.2529 39.0827L77.7625 61.1797C77.2553 61.7858 77.0078 62.5675 77.0737 63.355L79.5032 92.3962C79.6929 94.6631 77.3892 96.308 75.3066 95.3928L49.6842 84.132C48.915 83.7939 48.0393 83.7939 47.2701 84.132L21.6477 95.3928C19.5652 96.308 17.2615 94.6631 17.4511 92.3962L19.8807 63.355C19.9466 62.5675 19.699 61.7858 19.1919 61.1797L0.70147 39.0827C-0.72747 37.375 0.136352 34.7606 2.30139 34.2404L29.6178 27.6774C30.4156 27.4857 31.1001 26.9756 31.5119 26.2658L45.8822 1.4946Z"/></clipPath><linearGradient id="paint0_diamond_3242_141" x1="0" y1="0" x2="500" y2="500" gradientUnits="userSpaceOnUse">
<stop stop-color="#FFE550"/>
<stop offset="1" stop-color="#FFE26C"/>
</linearGradient>
</defs>
</svg>
