<svg width="733" height="933" viewBox="0 0 733 933" fill="none" xmlns="http://www.w3.org/2000/svg">
<g filter="url(#filter0_f_3241_20)">
<path d="M324.672 174.314L666.581 1014.69L125.812 1056.71L324.672 174.314Z" fill="url(#paint0_linear_3241_20)"/>
</g>
<path d="M510.402 179.375C508.555 157.127 502.088 135.456 491.37 115.601C480.653 95.7462 465.895 78.0957 447.939 63.6573C429.984 49.2189 409.182 38.2754 386.721 31.4516C364.261 24.6278 340.582 22.0574 317.036 23.8872C293.49 25.7169 270.539 31.9109 249.492 42.1156C228.445 52.3203 209.716 66.3358 194.373 83.3618C179.03 100.388 167.374 120.091 160.07 141.346C152.766 162.602 149.957 184.993 151.805 207.242L331.103 193.309L510.402 179.375Z" fill="#0059FF" fill-opacity="0.85"/>
<ellipse cx="175.308" cy="162.921" rx="175.308" ry="162.921" transform="matrix(0.996994 -0.077476 0.0827488 0.99657 146.772 37.1183)" fill="url(#paint1_radial_3241_20)"/>
<path d="M250.667 199.559C250.053 191.876 251.521 184.113 254.989 176.713C258.456 169.313 263.854 162.421 270.875 156.431C277.896 150.44 286.402 145.469 295.908 141.8C305.413 138.131 315.732 135.836 326.276 135.047C336.819 134.258 347.38 134.991 357.356 137.202C367.332 139.413 376.527 143.06 384.417 147.935C392.306 152.81 398.736 158.817 403.338 165.613C407.94 172.409 410.625 179.862 411.239 187.544L330.953 193.552L250.667 199.559Z" fill="#30FF67"/>
<ellipse cx="9.07634" cy="19.3151" rx="9.07634" ry="19.3151" transform="matrix(0.758597 0.655606 -0.676635 0.732729 359.088 145.122)" fill="#2C2424"/>
<ellipse cx="9.07634" cy="19.3151" rx="9.07634" ry="19.3151" transform="matrix(-0.640693 0.764345 0.788861 0.618846 291.361 150.385)" fill="#2C2424"/>
<path d="M293.148 136.325C291.356 131.592 285.423 131.737 282.681 132.402C283.829 129.38 287.843 123.813 294.715 125.715C303.306 128.092 303.877 130.754 306.352 135.299C308.828 139.843 306.383 144.093 305.245 147.226L297.06 153.952C292.946 154.948 284.685 156.537 284.551 154.924C284.383 152.907 288.538 148.186 290.83 146.316C293.123 144.446 295.388 142.24 293.148 136.325Z" fill="#30FF67"/>
<ellipse cx="18.137" cy="6.68155" rx="18.137" ry="6.68155" transform="matrix(0.886607 -0.458412 0.48453 0.877034 266.276 128.572)" fill="#30FF67"/>
<path d="M356.096 131.433C357.084 126.484 362.965 125.712 365.782 125.944C364.15 123.138 359.269 118.262 352.798 121.201C344.71 124.875 344.586 127.591 342.892 132.459C341.198 137.327 344.313 141.145 345.954 144.062L355.143 149.438C359.369 149.786 367.786 150.08 367.652 148.466C367.485 146.449 362.605 142.43 360.033 140.938C357.461 139.447 354.861 137.619 356.096 131.433Z" fill="#30FF67"/>
<ellipse cx="18.137" cy="6.68155" rx="18.137" ry="6.68155" transform="matrix(-0.950878 -0.315622 -0.333605 0.940611 381.345 119.63)" fill="#30FF67"/>
<path d="M423.69 211.706L513.258 177.543L476.972 88.508L387.404 122.671L423.69 211.706Z" fill="black"/>
<path d="M242.476 225.788L148.419 205.894L169.549 112.398L263.605 132.291L242.476 225.788Z" fill="black"/>
<path d="M277.206 130.734C277.394 130.888 277.758 131.032 278.376 131.069C279.911 131.163 280.848 130.026 282.118 129.373C283.361 128.733 284.55 127.863 285.397 126.856C286.145 125.967 287.655 125.911 289.72 124.771C290.944 124.034 291.763 123.287 292.341 122.817C292.586 122.541 292.732 122.192 292.818 121.068" stroke="#12B70A" stroke-width="2" stroke-linecap="round"/>
<path d="M350.735 116.049C351.796 116.923 353.346 118.394 356.646 120.723C358.085 121.738 361.122 121.317 364.193 121.157C365.863 121.07 366.712 122.743 368.059 123.413C368.375 123.523 368.541 123.563 368.74 123.628C368.939 123.692 369.164 123.78 369.41 124.03" stroke="#12B70A" stroke-width="2" stroke-linecap="round"/>
<g filter="url(#filter1_i_3241_20)">
<rect width="586.22" height="144.369" rx="72.1844" transform="matrix(0.996994 -0.077476 0.0827488 0.99657 38.527 216.045)" fill="url(#paint2_linear_3241_20)"/>
</g>
<path opacity="0.38" d="M510.402 179.375C508.555 157.127 502.088 135.456 491.37 115.601C480.653 95.7462 465.895 78.0957 447.939 63.6573C429.984 49.2189 409.182 38.2754 386.721 31.4516C364.261 24.6278 340.582 22.0574 317.036 23.8872C293.49 25.7169 270.539 31.9109 249.492 42.1156C228.445 52.3203 209.716 66.3358 194.373 83.3618C179.03 100.388 167.374 120.091 160.07 141.346C152.766 162.602 149.957 184.993 151.805 207.242L331.103 193.309L510.402 179.375Z" fill="#1F242D" fill-opacity="0.2"/>
<path d="M461.94 117.105C455.679 112.565 463.917 109.332 445.666 89.3052C427.415 69.2781 416.351 74.75 415.675 66.3376C415.234 60.8564 429.024 61.3442 447.275 81.3713C465.526 101.398 466.673 111.33 461.94 117.105Z" fill="#FFCE66"/>
<defs>
<filter id="filter0_f_3241_20" x="113.512" y="162.014" width="565.369" height="907.001" filterUnits="userSpaceOnUse" color-interpolation-filters="sRGB">
<feFlood flood-opacity="0" result="BackgroundImageFix"/>
<feBlend mode="normal" in="SourceGraphic" in2="BackgroundImageFix" result="shape"/>
<feGaussianBlur stdDeviation="6.15" result="effect1_foregroundBlur_3241_20"/>
</filter>
<filter id="filter1_i_3241_20" x="44.2488" y="161.998" width="585.961" height="192.548" filterUnits="userSpaceOnUse" color-interpolation-filters="sRGB">
<feFlood flood-opacity="0" result="BackgroundImageFix"/>
<feBlend mode="normal" in="SourceGraphic" in2="BackgroundImageFix" result="shape"/>
<feColorMatrix in="SourceAlpha" type="matrix" values="0 0 0 0 0 0 0 0 0 0 0 0 0 0 0 0 0 0 127 0" result="hardAlpha"/>
<feMorphology radius="4" operator="erode" in="SourceAlpha" result="effect1_innerShadow_3241_20"/>
<feOffset dx="1" dy="-14"/>
<feGaussianBlur stdDeviation="7.1"/>
<feComposite in2="hardAlpha" operator="arithmetic" k2="-1" k3="1"/>
<feColorMatrix type="matrix" values="0 0 0 0 0.1875 0 0 0 0 1 0 0 0 0 0.404167 0 0 0 0.54 0"/>
<feBlend mode="normal" in2="shape" result="effect1_innerShadow_3241_20"/>
</filter>
<linearGradient id="paint0_linear_3241_20" x1="324.672" y1="174.314" x2="487.043" y2="1690.07" gradientUnits="userSpaceOnUse">
<stop stop-color="#30FF67"/>
<stop offset="0.951178" stop-color="#8E8E8E" stop-opacity="0"/>
<stop offset="1" stop-color="#5E5E5E" stop-opacity="0"/>
</linearGradient>
<radialGradient id="paint1_radial_3241_20" cx="0" cy="0" r="1" gradientTransform="matrix(-150.084 100.526 -108.169 -135.55 175.308 162.921)" gradientUnits="userSpaceOnUse">
<stop stop-color="#838383" stop-opacity="0.48"/>
<stop offset="0.5625" stop-color="#7B7B7B" stop-opacity="0.16"/>
<stop offset="0.889423" stop-color="#737373" stop-opacity="0"/>
</radialGradient>
<linearGradient id="paint2_linear_3241_20" x1="293.11" y1="0" x2="293.11" y2="144.369" gradientUnits="userSpaceOnUse">
<stop stop-color="#BDCCE6"/>
<stop offset="1" stop-color="#2D374D"/>
</linearGradient>
</defs>
</svg>
